<?xml version="1.0" encoding="utf-8" standalone="no"?>
<!DOCTYPE svg PUBLIC "-//W3C//DTD SVG 1.1//EN"
  "http://www.w3.org/Graphics/SVG/1.1/DTD/svg11.dtd">
<svg xmlns:xlink="http://www.w3.org/1999/xlink" width="1296pt" height="633.6pt" viewBox="0 0 1296 633.6" xmlns="http://www.w3.org/2000/svg" version="1.1">
 <metadata>
  <rdf:RDF xmlns:dc="http://purl.org/dc/elements/1.1/" xmlns:cc="http://creativecommons.org/ns#" xmlns:rdf="http://www.w3.org/1999/02/22-rdf-syntax-ns#">
   <cc:Work>
    <dc:type rdf:resource="http://purl.org/dc/dcmitype/StillImage"/>
    <dc:date>2026-09-18T18:36:54.366649</dc:date>
    <dc:format>image/svg+xml</dc:format>
    <dc:creator>
     <cc:Agent>
      <dc:title>Matplotlib v3.11.2, https://matplotlib.org/</dc:title>
     </cc:Agent>
    </dc:creator>
   </cc:Work>
  </rdf:RDF>
 </metadata>
 <defs>
  <style type="text/css">*{stroke-linejoin: round; stroke-linecap: butt}</style>
 </defs>
 <g id="figure_1">
  <g id="patch_1">
   <path d="M 0 633.6 
L 1296 633.6 
L 1296 0 
L 0 0 
z
" style="fill: #f8f7f2"/>
  </g>
  <g id="axes_1">
   <g id="patch_2">
    <path d="M 231.149589 301.644288 
C 263.105753 301.644288 263.105753 213.426893 295.061918 213.426893 
" clip-path="url(#p94bc2ee99c)" style="fill: none; stroke: #d8dedb; stroke-width: 0.9; stroke-linejoin: miter"/>
   </g>
   <g id="patch_3">
    <path d="M 231.149589 301.644288 
C 263.105753 301.644288 263.105753 352.109261 295.061918 352.109261 
" clip-path="url(#p94bc2ee99c)" style="fill: none; stroke: #007e80; stroke-width: 1.6; stroke-linejoin: miter"/>
   </g>
   <g id="patch_4">
    <path d="M 438.509589 213.426893 
C 464.074521 213.426893 464.074521 193.394995 489.639452 193.394995 
" clip-path="url(#p94bc2ee99c)" style="fill: none; stroke: #d8dedb; stroke-width: 0.9; stroke-linejoin: miter"/>
   </g>
   <g id="patch_5">
    <path d="M 438.509589 213.426893 
C 464.074521 213.426893 464.074521 222.672384 489.639452 222.672384 
" clip-path="url(#p94bc2ee99c)" style="fill: none; stroke: #d8dedb; stroke-width: 0.9; stroke-linejoin: miter"/>
   </g>
   <g id="patch_6">
    <path d="M 438.509589 213.426893 
C 464.074521 213.426893 464.074521 251.949773 489.639452 251.949773 
" clip-path="url(#p94bc2ee99c)" style="fill: none; stroke: #d8dedb; stroke-width: 0.9; stroke-linejoin: miter"/>
   </g>
   <g id="patch_7">
    <path d="M 438.509589 352.109261 
C 478.632329 352.109261 478.632329 281.997619 518.755068 281.997619 
" clip-path="url(#p94bc2ee99c)" style="fill: none; stroke: #007e80; stroke-width: 1.6; stroke-linejoin: miter"/>
   </g>
   <g id="patch_8">
    <path d="M 438.509589 352.109261 
C 478.632329 352.109261 478.632329 360.584294 518.755068 360.584294 
" clip-path="url(#p94bc2ee99c)" style="fill: none; stroke: #d8dedb; stroke-width: 0.9; stroke-linejoin: miter"/>
   </g>
   <g id="patch_9">
    <path d="M 438.509589 352.109261 
C 478.632329 352.109261 478.632329 439.17097 518.755068 439.17097 
" clip-path="url(#p94bc2ee99c)" style="fill: none; stroke: #d8dedb; stroke-width: 0.9; stroke-linejoin: miter"/>
   </g>
   <g id="patch_10">
    <path d="M 666.463562 281.997619 
C 706.231233 281.997619 706.231233 253.490688 745.998904 253.490688 
" clip-path="url(#p94bc2ee99c)" style="fill: none; stroke: #007e80; stroke-width: 1.6; stroke-linejoin: miter"/>
   </g>
   <g id="patch_11">
    <path d="M 666.463562 281.997619 
C 706.231233 281.997619 706.231233 365.977498 745.998904 365.977498 
" clip-path="url(#p94bc2ee99c)" style="fill: none; stroke: #d8dedb; stroke-width: 0.9; stroke-linejoin: miter"/>
   </g>
   <g id="patch_12">
    <path d="M 666.463562 281.997619 
C 706.231233 281.997619 706.231233 459.973325 745.998904 459.973325 
" clip-path="url(#p94bc2ee99c)" style="fill: none; stroke: #d8dedb; stroke-width: 0.9; stroke-linejoin: miter"/>
   </g>
   <g id="text_1">
    <text style="font-weight: 600; font-size: 11px; font-family: 'Avenir Next'; text-anchor: start; fill: #007e80" x="82.020822" y="79.77244" transform="rotate(-0 82.020822 79.77244)">A  /  INSIDE ONE OF SIX TEAM MEMBERS</text>
   </g>
   <g id="text_2">
    <text style="font-weight: 600; font-size: 22px; font-family: 'Avenir Next'; text-anchor: start; fill: #172c35" x="82.020822" y="117.159574" transform="rotate(-0 82.020822 117.159574)">Choosing a species opens another search space.</text>
   </g>
   <g id="text_3">
    <text style="font-weight: 600; font-size: 9.5px; font-family: 'Avenir Next'; text-anchor: start; fill: #52656b" x="82.020822" y="167.129106" transform="rotate(-0 82.020822 167.129106)">SPECIES</text>
   </g>
   <g id="text_4">
    <text style="font-weight: 600; font-size: 9.5px; font-family: 'Avenir Next'; text-anchor: start; fill: #52656b" x="295.061918" y="167.129106" transform="rotate(-0 295.061918 167.129106)">ABILITY</text>
   </g>
   <g id="text_5">
    <text style="font-weight: 600; font-size: 9.5px; font-family: 'Avenir Next'; text-anchor: start; fill: #52656b" x="518.755068" y="167.129106" transform="rotate(-0 518.755068 167.129106)">ITEM</text>
   </g>
   <g id="text_6">
    <text style="font-weight: 600; font-size: 9.5px; font-family: 'Avenir Next'; text-anchor: start; fill: #52656b" x="745.998904" y="167.129106" transform="rotate(-0 745.998904 167.129106)">MOVESET</text>
   </g>
   <g id="patch_13">
    <path d="M 87.55989 339.165573 
L 225.610521 339.165573 
Q 232.001753 339.165573 232.001753 332.231455 
L 232.001753 271.057121 
Q 232.001753 264.123003 225.610521 264.123003 
L 87.55989 264.123003 
Q 81.168658 264.123003 81.168658 271.057121 
L 81.168658 332.231455 
Q 81.168658 339.165573 87.55989 339.165573 
z
" clip-path="url(#p94bc2ee99c)" style="fill: #e5efeb; stroke: #007e80; stroke-width: 1.05; stroke-linejoin: miter"/>
   </g>
   <g id="patch_14">
    <path d="M 300.600986 240.547 
L 432.970521 240.547 
Q 439.361753 240.547 439.361753 233.612882 
L 439.361753 193.240904 
Q 439.361753 186.306785 432.970521 186.306785 
L 300.600986 186.306785 
Q 294.209753 186.306785 294.209753 193.240904 
L 294.209753 233.612882 
Q 294.209753 240.547 300.600986 240.547 
z
" clip-path="url(#p94bc2ee99c)" style="fill: #f8f7f2; stroke: #d8dedb; stroke-width: 1.05; stroke-linejoin: miter"/>
   </g>
   <g id="patch_15">
    <path d="M 300.600986 379.229368 
L 432.970521 379.229368 
Q 439.361753 379.229368 439.361753 372.29525 
L 439.361753 331.923272 
Q 439.361753 324.989153 432.970521 324.989153 
L 300.600986 324.989153 
Q 294.209753 324.989153 294.209753 331.923272 
L 294.209753 372.29525 
Q 294.209753 379.229368 300.600986 379.229368 
z
" clip-path="url(#p94bc2ee99c)" style="fill: #e5efeb; stroke: #007e80; stroke-width: 1.05; stroke-linejoin: miter"/>
   </g>
   <g id="text_7">
    <text style="font-size: 18px; font-family: 'Avenir Next'; text-anchor: start; fill: #52656b" x="498.161096" y="228.378384" transform="rotate(-0 498.161096 228.378384)">…</text>
   </g>
   <g id="patch_16">
    <path d="M 524.294137 308.347269 
L 660.924493 308.347269 
Q 667.315726 308.347269 667.315726 301.413151 
L 667.315726 262.582088 
Q 667.315726 255.647969 660.924493 255.647969 
L 524.294137 255.647969 
Q 517.902904 255.647969 517.902904 262.582088 
L 517.902904 301.413151 
Q 517.902904 308.347269 524.294137 308.347269 
z
" clip-path="url(#p94bc2ee99c)" style="fill: #e5efeb; stroke: #007e80; stroke-width: 1.05; stroke-linejoin: miter"/>
   </g>
   <g id="patch_17">
    <path d="M 524.294137 386.933944 
L 660.924493 386.933944 
Q 667.315726 386.933944 667.315726 379.999826 
L 667.315726 341.168763 
Q 667.315726 334.234644 660.924493 334.234644 
L 524.294137 334.234644 
Q 517.902904 334.234644 517.902904 341.168763 
L 517.902904 379.999826 
Q 517.902904 386.933944 524.294137 386.933944 
z
" clip-path="url(#p94bc2ee99c)" style="fill: #f8f7f2; stroke: #d8dedb; stroke-width: 1.05; stroke-linejoin: miter"/>
   </g>
   <g id="patch_18">
    <path d="M 524.294137 465.52062 
L 660.924493 465.52062 
Q 667.315726 465.52062 667.315726 458.586501 
L 667.315726 419.755438 
Q 667.315726 412.82132 660.924493 412.82132 
L 524.294137 412.82132 
Q 517.902904 412.82132 517.902904 419.755438 
L 517.902904 458.586501 
Q 517.902904 465.52062 524.294137 465.52062 
z
" clip-path="url(#p94bc2ee99c)" style="fill: #f8f7f2; stroke: #d8dedb; stroke-width: 1.05; stroke-linejoin: miter"/>
   </g>
   <g id="text_8">
    <text style="font-size: 10px; font-family: 'Avenir Next'; text-anchor: start; fill: #52656b" x="518.755068" y="505.518493" transform="rotate(-0 518.755068 505.518493)">+146 other items</text>
   </g>
   <g id="patch_19">
    <path d="M 751.537973 290.626744 
L 1067.122849 290.626744 
Q 1073.514082 290.626744 1073.514082 283.692626 
L 1073.514082 223.28875 
Q 1073.514082 216.354632 1067.122849 216.354632 
L 751.537973 216.354632 
Q 745.14674 216.354632 745.14674 223.28875 
L 745.14674 283.692626 
Q 745.14674 290.626744 751.537973 290.626744 
z
" clip-path="url(#p94bc2ee99c)" style="fill: #e5efeb; stroke: #007e80; stroke-width: 1.05; stroke-linejoin: miter"/>
   </g>
   <g id="patch_20">
    <path d="M 751.537973 403.113554 
L 1067.122849 403.113554 
Q 1073.514082 403.113554 1073.514082 396.179436 
L 1073.514082 335.77556 
Q 1073.514082 328.841441 1067.122849 328.841441 
L 751.537973 328.841441 
Q 745.14674 328.841441 745.14674 335.77556 
L 745.14674 396.179436 
Q 745.14674 403.113554 751.537973 403.113554 
z
" clip-path="url(#p94bc2ee99c)" style="fill: #f8f7f2; stroke: #d8dedb; stroke-width: 1.05; stroke-linejoin: miter"/>
   </g>
   <g id="text_9">
    <text style="font-size: 11px; font-family: 'Avenir Next'; text-anchor: start; fill: #52656b" x="758.071233" y="463.460325" transform="rotate(-0 758.071233 463.460325)">… 424,268 more four-move sets</text>
   </g>
   <g id="text_10">
    <text style="font-size: 24px; font-family: 'Avenir Next'; text-anchor: start; fill: #007e80" x="1095.386301" y="261.098688" transform="rotate(-0 1095.386301 261.098688)">…</text>
   </g>
   <g id="text_11">
    <text style="font-weight: 600; font-size: 10px; font-family: 'Avenir Next'; text-anchor: start; fill: #007e80" x="745.998904" y="507.059408" transform="rotate(-0 745.998904 507.059408)">58 eligible moves yield 424,270 four-move sets</text>
   </g>
   <g id="text_12">
    <text style="font-weight: 600; font-size: 9.5px; font-family: 'Avenir Next'; text-anchor: start; fill: #52656b" x="82.020822" y="543.112415" transform="rotate(-0 82.020822 543.112415)">EVERY PATH CONTINUES</text>
   </g>
   <g id="text_13">
    <text style="font-weight: 600; font-size: 12px; font-family: 'Avenir Next'; text-anchor: start; fill: #172c35" x="295.061918" y="543.904915" transform="rotate(-0 295.061918 543.904915)">21 stat alignments</text>
   </g>
   <g id="text_14">
    <text style="font-size: 14px; font-family: 'Avenir Next'; text-anchor: start; fill: #52656b" x="516.624658" y="544.538915" transform="rotate(-0 516.624658 544.538915)">×</text>
   </g>
   <g id="text_15">
    <text style="font-weight: 600; font-size: 12px; font-family: 'Avenir Next'; text-anchor: start; fill: #172c35" x="552.131507" y="543.904915" transform="rotate(-0 552.131507 543.904915)">10,008,272 Stat Point spreads</text>
   </g>
   <g id="text_16">
    <text style="font-weight: 600; font-size: 11px; font-family: 'Avenir Next'; text-anchor: start; fill: #007e80" x="962.590685" y="543.587915" transform="rotate(-0 962.590685 543.587915)">Repeat for all six members</text>
   </g>
   <g id="text_17">
    <text style="font-weight: 600; font-size: 15px; font-family: 'Avenir Next'; text-anchor: middle; fill: #172c35" x="156.585205" y="296.152202" transform="rotate(-0 156.585205 296.152202)">Garchomp</text>
   </g>
   <g id="text_18">
    <text style="font-size: 9.5px; font-family: 'Avenir Next'; text-anchor: middle; fill: #52656b" x="156.585205" y="320.758352" transform="rotate(-0 156.585205 320.758352)">Example member</text>
   </g>
   <g id="text_19">
    <text style="font-size: 11px; font-family: 'Avenir Next'; text-anchor: middle; fill: #172c35" x="366.785753" y="216.913893" transform="rotate(-0 366.785753 216.913893)">Sand Veil</text>
   </g>
   <g id="text_20">
    <text style="font-weight: 600; font-size: 11px; font-family: 'Avenir Next'; text-anchor: middle; fill: #172c35" x="366.785753" y="355.596261" transform="rotate(-0 366.785753 355.596261)">Rough Skin</text>
   </g>
   <g id="text_21">
    <text style="font-weight: 600; font-size: 11px; font-family: 'Avenir Next'; text-anchor: middle; fill: #172c35" x="592.609315" y="285.484619" transform="rotate(-0 592.609315 285.484619)">Clear Amulet</text>
   </g>
   <g id="text_22">
    <text style="font-size: 11px; font-family: 'Avenir Next'; text-anchor: middle; fill: #172c35" x="592.609315" y="364.071294" transform="rotate(-0 592.609315 364.071294)">Life Orb</text>
   </g>
   <g id="text_23">
    <text style="font-size: 11px; font-family: 'Avenir Next'; text-anchor: middle; fill: #172c35" x="592.609315" y="442.65797" transform="rotate(-0 592.609315 442.65797)">No item</text>
   </g>
   <g id="text_24">
    <text style="font-weight: 600; font-size: 11px; font-family: 'Avenir Next'; fill: #172c35" transform="translate(842.690177 249.464688)">Earthquake · Dragon Claw</text>
    <text style="font-weight: 600; font-size: 11px; font-family: 'Avenir Next'; fill: #172c35" transform="translate(850.795802 264.490688)">Protect · Swords Dance</text>
   </g>
   <g id="text_25">
    <text style="font-size: 11px; font-family: 'Avenir Next'; fill: #172c35" transform="translate(832.791895 361.951498)">Stomping Tantrum · Rock Slide</text>
    <text style="font-size: 11px; font-family: 'Avenir Next'; fill: #172c35" transform="translate(851.639708 376.977498)">Protect · Swords Dance</text>
   </g>
  </g>
  <g id="text_26">
   <text style="font-size: 11px; font-family: 'Avenir Next'; text-anchor: start; fill: #52656b" x="77.76" y="598.752" transform="rotate(-0 77.76 598.752)">Branching illustration: only a few paths are shown. Item choices are coupled across the six members by Item Clause.</text>
  </g>
 </g>
 <defs>
  <clipPath id="p94bc2ee99c">
   <rect x="77.76" y="57.024" width="1140.48" height="481.536"/>
  </clipPath>
 </defs>
</svg>
